<?xml version="1.0" encoding="UTF-8" standalone="no"?>
<!-- Created with Inkscape (http://www.inkscape.org/) -->

<svg
   xmlns:dc="http://purl.org/dc/elements/1.1/"
   xmlns:cc="http://creativecommons.org/ns#"
   xmlns:rdf="http://www.w3.org/1999/02/22-rdf-syntax-ns#"
   xmlns:svg="http://www.w3.org/2000/svg"
   xmlns="http://www.w3.org/2000/svg"
   xmlns:sodipodi="http://sodipodi.sourceforge.net/DTD/sodipodi-0.dtd"
   xmlns:inkscape="http://www.inkscape.org/namespaces/inkscape"
   width="210mm"
   height="297mm"
   viewBox="0 0 210 297"
   version="1.1"
   id="svg8"
   inkscape:export-filename="C:\Users\Sandro\Desktop\xampp\htdocs\SerieTv\templates\images\like.png"
   inkscape:export-xdpi="96"
   inkscape:export-ydpi="96"
   inkscape:version="0.92.4 (5da689c313, 2019-01-14)"
   sodipodi:docname="like.svg">
  <defs
     id="defs2" />
  <sodipodi:namedview
     id="base"
     pagecolor="#ffffff"
     bordercolor="#666666"
     borderopacity="1.0"
     inkscape:pageopacity="0.0"
     inkscape:pageshadow="2"
     inkscape:zoom="0.98994949"
     inkscape:cx="203.77287"
     inkscape:cy="582.56421"
     inkscape:document-units="mm"
     inkscape:current-layer="layer1"
     showgrid="false"
     inkscape:window-width="1920"
     inkscape:window-height="1017"
     inkscape:window-x="-8"
     inkscape:window-y="-8"
     inkscape:window-maximized="1" />
  <metadata
     id="metadata5">
    <rdf:RDF>
      <cc:Work
         rdf:about="">
        <dc:format>image/svg+xml</dc:format>
        <dc:type
           rdf:resource="http://purl.org/dc/dcmitype/StillImage" />
        <dc:title></dc:title>
      </cc:Work>
    </rdf:RDF>
  </metadata>
  <g
     inkscape:label="Livello 1"
     inkscape:groupmode="layer"
     id="layer1">
    <g
       id="g3730"
       transform="matrix(0.46287401,0,0,0.46287401,21.639996,97.775484)">
      <rect
         ry="1.1358955"
         style="fill:#008000;stroke:none;stroke-width:0.26458332"
         y="183.21001"
         x="25.858328"
         height="13.831198"
         width="5.8799295"
         id="rect3724" />
      <path
         sodipodi:nodetypes="ccsscssssssssscsscc"
         inkscape:connector-curvature="0"
         id="path3726"
         d="m 33.007786,183.77794 v 12.09395 c 2.864964,0.60627 7.495787,1.49114 10.988509,1.40317 l 5.30613,-0.13364 c 1.295153,-0.0326 2.996689,-0.83495 3.115811,-3.77518 0.663752,-0.77529 1.32705,-1.14742 1.54421,-2.38348 0.118905,-0.6768 -0.618503,-1.64241 -0.608768,-2.1267 0.01003,-0.49892 1.314009,-1.31032 1.363331,-2.25222 0.04942,-0.94382 -1.029245,-1.68128 -1.029245,-2.10761 0,-0.47575 0.985932,-1.22279 0.986051,-2.25508 1.88e-4,-1.62758 -1.179441,-3.07361 -2.669339,-3.07361 h -7.006329 c -0.940934,0 -0.875784,-1.15487 -0.53118,-1.90429 0.903459,-1.96479 2.422284,-3.58166 2.260339,-6.03482 -0.172663,-2.61552 -1.120977,-5.20873 -4.110491,-4.22862 -0.202672,2.20293 -0.167194,4.59051 -1.322917,6.4256 -0.754435,1.19792 -2.322575,1.83445 -3.260045,3.77976 -1.167263,2.42214 -2.357681,6.54371 -3.992372,6.54371 z"
         style="fill:#008000;stroke:none;stroke-width:0.26458332px;stroke-linecap:butt;stroke-linejoin:miter;stroke-opacity:1" />
    </g>
  </g>
</svg>
